<svg id="clouds" xmlns="http://www.w3.org/2000/svg" viewBox="0 0 716.4 99.8">
<g>
	<polygon fill="#C2C1C1" points="517.3,80.3 547.7,88.8 576.7,80.3 608.5,88.8 630.8,90.3 646.5,96 673.1,99.8 703.1,87.9 716.4,65.6
		708.8,35.6 685.5,22.8 664.1,40.4 639.9,29 626.1,43.2 617.5,12.4 575.3,0 547.2,3.3 505.4,10 496.4,29 503.5,43.2 523.5,49.9 
		496.4,58.9 466.5,53.7 440.4,66 451.8,86 487.4,87.4"/>
	<polygon fill="#909090" points="517.3,80.3 547.7,88.8 576.7,80.3 608.5,88.8 630.8,90.3 646.5,96 673.1,99.8 703.1,87.9 686.5,86.5
		664.1,90.3 637.5,82.4 609,83.1 573.8,77 546.8,79.3 515,73.4 496.9,77.9 458.9,77.4 440.4,66 451.8,86 487.4,87.4"/>
	<polygon fill="#E9E9EA" points="716.4,65.6 708.8,35.6 685.5,22.8 664.1,40.4 639.9,29 626.1,43.2 617.5,12.4 575.3,0 547.2,3.3
		505.4,10 496.4,29 503.5,43.2 523.5,49.9 496.4,58.9 466.5,53.7 440.4,66 468.9,59.4 497.4,65.9 523.5,49.9 503.5,43.2 496.4,29 
		506.4,12.8 564.3,7.1 608.5,18.5 623.7,45.6 641.3,36.1 661.7,42.8 684.5,28.5 700.7,41.8"/>
</g>
<g>
	<polygon fill="#C2C1C1" points="99.9,59.5 63.9,59.5 50.6,60.4 41.4,63.7 7.9,59 0,45.7 12.1,30.8 30.9,30.8 45.3,24.1 58.5,14.2
		83.6,6.9 100.1,8.9 124.9,12.8 130.3,24.1 163.4,46 156.7,57.8 135.6,58.7 118.2,63.7"/>
	<polygon fill="#909090" points="99.9,59.5 81.9,60.9 63.9,59.5 50.6,60.4 41.4,63.7 7.9,59 0,45.7 14.1,53.6 37.4,58.1 50.9,55.6
		74.8,56.4 100.7,53.4 117.6,60.1 135,54.7 151.9,55.9 163.4,46 156.7,57.8 135.6,58.7 118.2,63.7"/>
	<polygon fill="#E9E9EA" points="0,45.7 12.1,30.8 30.9,30.8 45.3,24.1 58.5,14.2 83.6,6.9 100.1,8.9 124.9,12.8 130.3,24.1 163.4,46
		129.1,28 121.8,15.6 83.8,9.7 59.4,15.1 45.3,24.1 32.4,31.7 13.5,33.4"/>
</g>
</svg>
