<svg id="crow" xmlns="http://www.w3.org/2000/svg" viewBox="0 0 47.1 47.1">
<g>
	<path fill="#333E48" d="M45.4,18c-2.5-5-9.7-4.4-11.2-4.1c0,0,0,0.1,0,0.1c0,1.9-1.6,3.5-3.5,3.5S27.2,16,27.2,14
		c0-1.2,0.6-2.2,1.5-2.9c-1.3,0.1-3.5,0.4-5.5,0.4c-3,0-6.5-1.5-6.5-1.5l-1.9,4c0,0-7.7-2.5-10.7-0.5S-1.6,21,1.1,31
		c1,4,5.7-1,5.7-1s3,5,4-1c0,0,2,4,4,0c0,0-2.5,9.7-2,11c1.1,2.3,3.6,0.3,4.4,0.3s1,0.9,2.2,0.9s2.4-0.9,2.9-0.9s1,0.9,1.8,0.9
		s1.6-1.1,2.1-1.1s3.8,2,4.6-0.1c1-3-1-11-1-11s1.9,4.7,5,1c0,0,2.1,4.7,5,0c-0.1,0.4,3.4,3.3,4.9,3.2C46.8,33.3,48.4,24,45.4,18z"
		/>
	<circle fill="#FFFFFF" cx="30.7" cy="14" r="3.5"/>
	<path fill="#F8AE3B" d="M29.8,10.7c0.2-1.6,0.6-8-2-10.7l-4.5,10.5c0,0-5-6-5.5-7.5c0,0-2,5-1,7c0,0,3.5,1.5,6.5,1.5c2,0,4.3-0.2,5.5-0.4C29.1,10.9,29.4,10.8,29.8,10.7z"/>
	<circle fill="#1B1B1B" cx="31.2" cy="13.5" r="1"/>
	<circle fill="#333E48" cx="21.6" cy="43.3" r="0.9"/>
	<circle fill="#333E48" cx="21.6" cy="46.1" r="0.9"/>
</g>
</svg>
