<svg version="1.1" id="Calque_1" xmlns="http://www.w3.org/2000/svg" viewBox="0 0 93 93">
	<path fill="#64BDBA" d="M76,93.8H17c-9.4,0-17-7.7-17-17v-59c0-9.4,7.7-17,17-17h59c9.3,0,17,7.6,17,17v59C93,86.2,85.3,93.8,76,93.8z"/>
	<rect x="9" y="20.8" fill="#f4f4f4" stroke="#333e48" stroke-width="3" stroke-linejoin="round" width="74.6" height="53"/>
	<path fill="#333E48" d="M74.7,29.5H14.3c-1.3,0-2.3-1-2.3-2.3v0c0-1.3,1-2.3,2.3-2.3h60.4c1.3,0,2.3,1,2.3,2.3v0C77,28.5,76,29.5,74.7,29.5z"/>
	<rect x="12.1" y="34.7" fill="#333E48" width="25.2" height="16"/>
		<g>
			<rect x="40.4" y="34.7" fill="#333E48" width="36.5" height="1.5"/>

			<rect x="40.4" y="41.4" fill="#333E48" width="36.5" height="1.5"/>

			<rect x="40.4" y="48.1" fill="#333E48" width="36.5" height="1.5"/>

			<rect x="12.1" y="54.2" fill="#333E48" width="64.8" height="1.5"/>

			<rect x="12.1" y="61.5" fill="#333E48" width="64.8" height="1.5"/>

			<rect x="12.1" y="68.1" fill="#333E48" width="64.8" height="1.5"/>
	</g>
</svg>
