<svg id="icon-web" xmlns="http://www.w3.org/2000/svg" viewBox="0 0 93 93">
	<path fill="#64BDBA" d="M76,93.1H17c-9.4,0-17-7.6-17-17v-59c0-9.4,7.7-17,17-17h59c9.3,0,17,7.7,17,17v59C93,85.5,85.4,93.1,76,93.1z"/>
	<g>
		<g>
			<path fill="#f4f4f4" stroke="#333e48" stroke-width="3" stroke-linejoin="round" d="M69.2,46.8c0,7.4-1.5,14.4-4.3,20.8c-5.9-1.1-12-1.6-18.2-1.6c-6.4,0-12.7,0.6-18.8,1.7
				c-2.8-6.4-4.4-13.5-4.4-20.9c0-7.1,1.4-13.8,4-20c6.2,1.2,12.7,1.8,19.2,1.8c6.3,0,12.6-0.6,18.6-1.7C67.8,33,69.2,39.7,69.2,46.8
				z"/>
			<path fill="#f4f4f4" stroke="#333e48" stroke-width="3" stroke-linejoin="round" d="M76.6,24.2c-3.7,1.1-7.5,2-11.3,2.7c-2.7-6.5-6.7-12.3-11.6-17.1C63,11.6,71.1,16.9,76.6,24.2z"/>
			<path fill="#f4f4f4" stroke="#333e48" stroke-width="3" stroke-linejoin="round" d="M84,46.6c0,8.9-3.1,17.1-8.3,23.5c-3.5-1-7.2-1.9-10.9-2.6c2.8-6.4,4.3-13.4,4.3-20.8c0-7-1.4-13.7-3.9-19.8
				c3.8-0.7,7.6-1.6,11.3-2.7C81.2,30.5,84,38.2,84,46.6z"/>
			<path fill="#f4f4f4" stroke="#333e48" stroke-width="3" stroke-linejoin="round" d="M75.7,70.1c-5.4,6.7-12.9,11.4-21.6,13.2c4.5-4.5,8.2-9.9,10.8-15.8C68.6,68.2,72.2,69.1,75.7,70.1z"/>
			<path fill="#f4f4f4" stroke="#333e48" stroke-width="3" stroke-linejoin="round" d="M46.7,65.9c-6.4,0-12.7,0.6-18.8,1.7c-2.8-6.4-4.4-13.5-4.4-20.9c0-7.1,1.4-13.8,4-20
				c6.2,1.2,12.7,1.8,19.2,1.8c6.3,0,12.6-0.6,18.6-1.7c2.5,6.1,3.9,12.8,3.9,19.8c0,7.4-1.5,14.4-4.3,20.8
				C59,66.5,52.9,65.9,46.7,65.9z"/>
			<path fill="#f4f4f4" stroke="#333e48" stroke-width="3" stroke-linejoin="round" d="M27.9,67.7c-3.6,0.7-7.1,1.5-10.5,2.5C12.1,63.7,9,55.5,9,46.6c0-8.4,2.8-16.2,7.5-22.5c3.6,1.1,7.2,2,11,2.7
				c-2.6,6.1-4,12.9-4,20C23.5,54.2,25,61.3,27.9,67.7z"/>
			<path fill="#f4f4f4" stroke="#333e48" stroke-width="3" stroke-linejoin="round" d="M65.3,26.9c-6,1.1-12.2,1.7-18.6,1.7V9.1c2.4,0,4.7,0.2,7,0.7C58.6,14.6,62.6,20.4,65.3,26.9z"/>
			<path fill="#f4f4f4" stroke="#333e48" stroke-width="3" stroke-linejoin="round" d="M64.9,67.5c-2.6,5.9-6.3,11.3-10.8,15.8c-2.4,0.5-4.9,0.8-7.4,0.8V65.9C52.9,65.9,59,66.5,64.9,67.5z"/>
			<path fill="#f4f4f4" stroke="#333e48" stroke-width="3" stroke-linejoin="round" d="M46.7,65.9v18.2c-0.1,0-0.1,0-0.2,0c-2.8,0-5.4-0.3-8-0.9c-4.4-4.5-8.1-9.7-10.6-15.6
				C34,66.5,40.2,65.9,46.7,65.9z"/>
			<path fill="#f4f4f4" stroke="#333e48" stroke-width="3" stroke-linejoin="round" d="M38.5,83.2c-8.5-1.8-15.9-6.6-21.1-13.1c3.4-1,6.9-1.9,10.5-2.5C30.4,73.5,34.1,78.8,38.5,83.2z"/>
			<path fill="#f4f4f4" stroke="#333e48" stroke-width="3" stroke-linejoin="round" d="M46.7,65.9c-6.4,0-12.7,0.6-18.8,1.7c-2.8-6.4-4.4-13.5-4.4-20.9c0-7.1,1.4-13.8,4-20
				c6.2,1.2,12.7,1.8,19.2,1.8c6.3,0,12.6-0.6,18.6-1.7c2.5,6.1,3.9,12.8,3.9,19.8c0,7.4-1.5,14.4-4.3,20.8
				C59,66.5,52.9,65.9,46.7,65.9z"/>
			<path fill="#f4f4f4" stroke="#333e48" stroke-width="3" stroke-linejoin="round" d="M38.9,9.9c-4.9,4.8-8.8,10.5-11.5,16.9c-3.7-0.7-7.4-1.6-11-2.7C21.9,16.9,29.8,11.7,38.9,9.9z"/>
			<path fill="#f4f4f4" stroke="#333e48" stroke-width="3" stroke-linejoin="round" d="M46.7,9.1v19.5c-6.6,0-13-0.6-19.2-1.8c2.7-6.4,6.6-12.2,11.5-16.9c2.5-0.5,5-0.8,7.6-0.8
				C46.6,9.1,46.6,9.1,46.7,9.1z"/>
			<path fill="#f4f4f4" stroke="#333e48" stroke-width="3" stroke-linejoin="round" d="M46.7,84.1"/>
			<line fill="#f4f4f4" stroke="#333e48" stroke-width="3" stroke-linejoin="round" x1="46.7" y1="65.9" x2="46.7" y2="28.6"/>
		</g>
		<g>
			<rect x="12.2" y="37.6" fill="#f4f4f4" width="68.5" height="19"/>
			<g>
				<path fill="#333E48" d="M19.7,40.4l1.8,6.9c0.4,1.5,0.8,2.9,1,4.3h0.1c0.3-1.4,0.8-2.8,1.2-4.3l2.2-6.9h2.1l2.1,6.8
					c0.5,1.6,0.9,3.1,1.2,4.4h0.1c0.2-1.4,0.6-2.8,1-4.4l1.9-6.8h2.4L32.5,54h-2.2l-2.1-6.5C27.7,46,27.3,44.6,27,43H27
					c-0.3,1.6-0.8,3-1.2,4.5L23.5,54h-2.2l-4.1-13.6H19.7z"/>
				<path fill="#333E48" d="M40.7,40.4l1.8,6.9c0.4,1.5,0.8,2.9,1,4.3h0.1c0.3-1.4,0.8-2.8,1.2-4.3l2.2-6.9h2.1l2.1,6.8
					c0.5,1.6,0.9,3.1,1.2,4.4h0.1c0.2-1.4,0.6-2.8,1-4.4l1.9-6.8H58L53.6,54h-2.2l-2.1-6.5C48.8,46,48.4,44.6,48,43H48
					c-0.3,1.6-0.8,3-1.2,4.5L44.6,54h-2.2l-4.1-13.6H40.7z"/>
				<path fill="#333E48" d="M61.8,40.4l1.8,6.9c0.4,1.5,0.8,2.9,1,4.3h0.1c0.3-1.4,0.8-2.8,1.2-4.3l2.2-6.9h2.1l2.1,6.8
					c0.5,1.6,0.9,3.1,1.2,4.4h0.1c0.2-1.4,0.6-2.8,1-4.4l1.9-6.8H79L74.6,54h-2.2l-2.1-6.5c-0.5-1.5-0.9-2.9-1.2-4.5H69
					c-0.3,1.6-0.8,3-1.2,4.5L65.6,54h-2.2l-4.1-13.6H61.8z"/>
			</g>
		</g>
	</g>
</svg>
