<svg  id="icon-draw" xmlns="http://www.w3.org/2000/svg" viewBox="0 0 93 93">
	<path fill="#64BDBA" d="M76,93H17C7.7,93,0,85.3,0,76V17C0,7.7,7.7,0,17,0h59c9.3,0,17,7.7,17,17v59C93,85.3,85.3,93,76,93z"/>
	<rect x="15.5" y="10.5" fill="#f4f4f4" stroke="#333e48" stroke-width="3" stroke-linejoin="round" width="59" height="73"/>
	<g>
		<path fill="#333E48" d="M31.7,22.1c-2.9,1.7-6.2,5.1-5.8,8.9c0.2,1.6,0.8,1.8,1.4,3c0.3,0.2,0.5,0.4,0.8,0.6c1.9,1.1,2.7,3.1,2.3,5.9
			c-0.1,1.2-0.7,2.3-1.1,3.4c-2.8,9-1.2,19.7,8.1,23.9c1.7,0.8,3.3-1.8,1.5-2.6c-4.2-1.9-6.9-5.4-7.8-10c-1-5.2,1.1-9.2,2.1-14
			c0.5-2.2,0.5-4.7-0.7-6.7c-0.4-0.6-1-1-1.5-1.6c-2.7-3.4-1.4-6.2,2.1-8.2C34.9,23.7,33.4,21.1,31.7,22.1L31.7,22.1z"/>
	</g>
	<g>
		<path fill="#f4f4f4" stroke="#333e48" stroke-width="3" stroke-linejoin="round" d="M85.5,33.4L44.7,64.1l-6.5,1.6l3.3-5.8l40.8-30.7c0,0-0.4,1.2,0.8,2.7C84.2,33.5,85.5,33.4,85.5,33.4z"/>
		<path fill="#f4f4f4" stroke="#333e48" stroke-width="3" stroke-linejoin="round" d="M42.2,59.4c0,0-0.4,1.2,0.8,2.7c1.1,1.5,2.4,1.5,2.4,1.5"/>
		<path fill="#f4f4f4" stroke="#333e48" stroke-width="3" stroke-linejoin="round" d="M85.7,33.3c0,0,0.4-1.2-0.8-2.7c-1.1-1.5-2.4-1.5-2.4-1.5"/>
	</g>
</svg>
