<svg xmlns="http://www.w3.org/2000/svg" viewBox="0 0 46 4.3">
<g>
	<path fill="#E7E7E7" d="M0,1.3c0,0.1,0,0.3,0.1,0.3l0-0.4L0,1.3z"/>
	<path fill="#E7E7E7" d="M0.4,2.1c0.1-0.2,0.2-0.5,0.1-0.9C0.5,1.6,0.5,1.4,0.4,1.9c-0.1,0-0.1-0.1-0.1-0.3c0,0.1-0.1-0.1-0.1,0.2
		c0.1,0.3,0.2,0.3,0.3,0.1C0.5,1.9,0.5,2,0.4,2.1z"/>
	<path fill="#E7E7E7" d="M7,2.7L7,2.7C6.9,2.7,7,2.7,7,2.7z"/>
	<path fill="#E7E7E7" d="M11,2.9C11,3,11,3,11,2.9C11,3,11,3,11,2.9z"/>
	<path fill="#E7E7E7" d="M11.7,3.4C11.7,3.4,11.7,3.4,11.7,3.4C11.7,3.4,11.7,3.4,11.7,3.4z"/>
	<path fill="#E7E7E7" d="M7,2.7l0.1,0.1C7.1,2.7,7,2.8,7,2.7z"/>
	<path fill="#E7E7E7" d="M1.3,1.1c0,0,0,0.1-0.1,0.1C1.3,1.2,1.3,1.2,1.3,1.1C1.3,1.1,1.3,1.1,1.3,1.1z"/>
	<path fill="#E7E7E7" d="M5.2,3.1L5.2,3.1c0,0-0.1,0.1-0.1,0.2L5.2,3.1z"/>
	<path fill="#E7E7E7" d="M3.8,3.1c0,0,0-0.3,0.1-0.5c0,0.1,0,0.2-0.1,0.2C3.8,2.9,3.8,3,3.8,3.1z"/>
	<path fill="#E7E7E7" d="M1.7,2.5L1.7,2.5C1.6,2.5,1.6,2.5,1.7,2.5z"/>
	<path fill="#E7E7E7" d="M6.2,3.1c0,0.1,0,0.1,0,0.1C6.2,3.2,6.2,3.2,6.2,3.1z"/>
	<path fill="#E7E7E7" d="M44.4,0.5C44.4,0.6,44.4,0.6,44.4,0.5C44.4,0.6,44.4,0.5,44.4,0.5z"/>
	<path fill="#E7E7E7" d="M46,2.2L46,2.2c0,0.1,0,0.1,0,0.2L46,2.2z"/>
	<path fill="#E7E7E7" d="M13,3.8C13,3.8,13,3.8,13,3.8C12.9,3.9,12.9,3.9,13,3.8z"/>
	<path fill="#E7E7E7" d="M24.6,3.6c-0.1-0.3,0.2-0.4,0-0.7C24.6,3,24.4,3.4,24.6,3.6z"/>
	<path fill="#E7E7E7" d="M1.4,1.1C1.4,1.1,1.4,1.1,1.4,1.1C1.4,1.1,1.4,1.1,1.4,1.1z"/>
	<path fill="#E7E7E7" d="M24.6,2.8C24.6,2.8,24.6,2.8,24.6,2.8L24.6,2.8C24.6,2.8,24.6,2.8,24.6,2.8z"/>
	<path fill="#E7E7E7" d="M15.9,3.6c0-0.1,0-0.1,0-0.2C15.8,3.5,15.9,3.6,15.9,3.6z"/>
	<path fill="#E7E7E7" d="M13.7,3.1L13.7,3.1C13.7,3.2,13.7,3.1,13.7,3.1z"/>
	<path fill="#E7E7E7" d="M17,3.1C17,3.2,17,3.2,17,3.1C17.1,3.2,17.1,3.1,17,3.1C17.1,3.2,17,3.2,17,3.1z"/>
	<path fill="#E7E7E7" d="M18.2,3.1C18.2,3.1,18.2,3.1,18.2,3.1C18.1,3.1,18.1,3.1,18.2,3.1L18.2,3.1z"/>
	<path fill="#E7E7E7" d="M40.9,0.7c0,0.1,0,0.2,0.1,0.3C40.9,0.8,41.1,0.7,40.9,0.7z"/>
	<path fill="#E7E7E7" d="M1.3,1.3c0-0.1,0-0.1,0-0.1c0,0,0,0,0,0C1.3,1.2,1.3,1.3,1.3,1.3z"/>
	<path fill="#E7E7E7" d="M17.1,0.4l0.2,0.1C17.2,0.4,17.1,0.4,17.1,0.4z"/>
	<path fill="#E7E7E7" d="M32.4,0.7L32.4,0.7C32.5,0.7,32.5,0.7,32.4,0.7z"/>
	<path fill="#E7E7E7" d="M17.8,0.4c0,0.1,0.1,0.2,0.1,0.2c0,0,0,0,0-0.1L17.8,0.4z"/>
	<path fill="#E7E7E7" d="M40.9,1C40.9,1,40.9,1,40.9,1C40.9,1,40.9,1,40.9,1z"/>
	<path fill="#E7E7E7" d="M42.1,0.2c-0.2,0-0.1,0.4-0.1,0.7c-0.2,0.1-0.1-0.3-0.2-0.6c-0.1,0.1-0.2,0.5-0.3,0.5c0-0.1,0-0.1,0-0.2
		c-0.1,0.4-0.4,0-0.6,0.5c0,0,0-0.1,0-0.1c0,0.2,0,0.5,0,0.6c-0.1,0-0.1,0.3-0.2,0c0,0,0.1-0.1,0.1-0.2l-0.1,0.1
		c-0.1-0.4,0.1-0.1,0.1-0.5c-0.2,0.1-0.4,0.5-0.5,0.4c0-0.4,0.3-0.1,0.1-0.5l0.2,0.2c-0.1-0.7,0.1,0,0-0.7
		c-0.3-0.1-0.3,0.2-0.5,0.1c-0.1,0.2,0,0.3,0,0.6c-0.4,0.4-0.3-1.1-0.5-0.5c-0.1,0.3-0.1,0.8-0.3,0.5l0.1-0.5
		c-0.2,0-0.1,0.7-0.4,0.4c0-0.2,0.2-0.2,0.2-0.2c-0.2-0.4-0.1,0.3-0.2,0.3l0-0.4C38.6,0.7,38.3,1,38,1.1c0-0.1,0.1-0.3,0-0.4
		c-0.4,0.2-0.8-0.1-1.1-0.3l-0.1,0.4c0,0-0.1-0.2,0-0.2c-0.1-0.1,0,0.2-0.1,0.4c-0.1,0-0.1-0.2-0.1-0.3
		c-0.2,0.3-0.7,0.7-0.9,0.3l0-0.1c-0.2-0.1-0.2,0.7-0.4,0.4l0-0.1c-0.4-0.2-0.9,0.2-1.2-0.4c-0.1,0.5-0.4-0.2-0.5,0.5
		c-0.2-0.4-0.2-0.5-0.5-0.7C33,0.5,33,1,32.8,1l0-0.4l-0.2,0.4l-0.1-0.5l-0.1,0.1c0,0,0.1,0.2,0.1,0.3c-0.2,0.2-0.4-0.3-0.4-0.5
		l-0.4,0.3c0-0.2,0.1-0.2,0.1-0.3c-0.2,0.4,0-0.4-0.2,0c0,0.1,0,0.2,0,0.3c-0.1-0.2-0.3-0.2-0.5-0.1l0-0.3
		c-0.3-0.1-0.6,0.1-1,0.1c0.1,0.1,0.1,0.6,0,0.6l0-0.4c-0.1,0.2,0.1,0.2,0,0.5c-0.1,0-0.1-0.5,0-0.6L30,0.7c0-0.1,0-0.2,0-0.3
		c-0.1,0.2-0.3-0.4-0.3,0l0-0.1c-0.3,0-0.5,0.1-0.7,0.2c0,0.3-0.1,0.3-0.2,0.5c-0.2-0.1-0.4-0.4-0.7-0.4C27.9,0.8,28,1,28,1.2
		c0-0.3-0.3-0.3-0.1-0.5c-0.3,0.1-0.4,0.1-0.7,0.3c0,0.1,0.1,0.2,0.1,0.3C27.1,1.3,27,1.1,27,1l0,0c-0.4,0.5-0.9-0.9-1.3-0.3
		l0,0L25.5,1c-0.2-0.1,0.1-0.2,0-0.4c-0.4,0.5-0.6-0.1-0.9,0.3c-0.2-0.9-0.8,0.1-1.1-0.5l0,0.2c-0.1,0.2-0.1-0.1-0.2-0.2
		c0,0.2,0.1,0.2,0,0.3c-0.7,0.3-1.4-0.3-2.1-0.5c-0.3-0.1-0.1,1.1-0.5,0.6l0.1-0.4c-0.5,0.5-1.1,0-1.6,0.4c0-0.1,0-0.2,0.1-0.2
		c-0.1-0.3-0.4,0-0.4,0.2c-0.1,0,0-0.2-0.1-0.3c-0.1-0.2-0.3,0.4-0.3,0.1c0,0,0-0.1,0-0.1c-0.1,0.1-0.3,0-0.3,0.3
		c-0.2-0.2-0.4,0.2-0.5-0.1C17.8,1,17.6,0.5,17.5,1c0-0.6-0.3-0.4-0.5-0.2c0-0.2-0.1-0.2-0.1-0.4c-0.1,0-0.3,0.1-0.2,0.4
		c-0.3-0.7-0.5,0.5-0.6-0.3C15.7,0.8,15.4,1,15,1.1c0-0.6,0.4-0.1,0.4-0.6c-0.3,0.2-0.5,0.7-0.9,0.6c-0.1-0.1,0.1-0.2,0.1-0.3
		c-0.3,0.2-0.7-0.1-1,0.3c0-0.1,0-0.1,0.1-0.2c-0.1,0-0.1-0.1-0.1,0.2l0.1-0.1c0.1,0.4-0.2,0.8-0.3,1c0.1-0.7-0.3-0.2-0.1-1.1
		c0,0-0.1,0.2-0.1,0.3c-0.1,0-0.1-0.1,0-0.3c-0.2,0.1-0.1,0.4-0.3,0.4c0-0.1,0-0.2,0.1-0.3c-0.1,0.2-0.2,0.5-0.4,0.4
		c0-0.1,0-0.2,0-0.2c-0.3,0-0.5,0.6-0.8,0.4c0.1-0.5-0.1-0.2-0.1-0.6L11.4,1l0.1,0.2c-0.1,0-0.3,0.3-0.4,0.2l0.1-0.2l-0.3,0.1
		l0.2,0.2c-0.1,0.2,0,0.6-0.2,0.5c0,0-0.1,0-0.2-0.3c0,0,0,0,0,0c-0.1,0.1-0.1,0.3-0.3,0.2c0-0.1,0-0.5,0-0.6
		c-0.1,0.4-0.3,0.1-0.4,0.5c0-0.1,0-0.3,0-0.4L9.9,1.7C9.9,1.6,9.8,1.5,9.9,1.3C9.7,1.3,9.9,1.9,9.7,1.6c0,0,0-0.1,0-0.1
		C9.5,1.4,9.3,1.7,9,1.6C9,1.1,9.2,1.5,9.1,1.1c-0.3,0.1-0.7,0.6-1,0.4l0.1,0.1c0,0.7-0.2-0.3-0.4,0c0,0,0.1-0.4,0-0.3
		C7.7,1.2,7.4,1.4,7.1,1.6l0-0.2C7,1.3,6.8,1.4,6.7,1.3c0,0.2-0.1,0.1-0.1,0.4c-0.4-1-0.8,0.5-1.2-0.3c0,0,0.1-0.1,0.1-0.1
		L5.2,1.4c0,0.3,0,0.2,0.1,0.4c0,0.2-0.1,0.3-0.2,0.3c0.1-0.2,0-0.5-0.1-0.6c0,0.1,0,0.2,0,0.3C4.8,1.2,5,2.3,4.7,2l0-0.1
		C4.7,1.9,4.6,2.1,4.5,2.1c0-0.3,0.1-0.2,0.1-0.4c-0.1,0-0.3,0.6-0.4,0.3c0.1-0.1,0.1-0.1,0.2-0.2C4.3,1.4,4.3,1.5,4.2,1.4l0,0
		L4,1.2L4,1.3C3.9,2.2,3.7,1.5,3.5,2.1c0.2-0.5,0-0.3,0.1-0.7C3.5,1.3,3.4,1.2,3.4,1.1C3.3,1.4,3.2,0.8,3.1,1.3
		c0-0.1-0.1,0-0.1-0.3C2.9,1,3,1.2,3,1.3C2.8,1.7,2.5,0.8,2.2,1.4C2,1.6,1.9,2,1.7,2.2C1.6,2,1.8,1.8,1.8,1.8
		c-0.1-0.2-0.2-0.1-0.3,0c0-0.1,0-0.2,0-0.3c-0.1,0-0.1,0.4-0.2,0.3c0-0.1,0.1-0.3,0.1-0.5C1.2,1.3,1.1,1.5,0.9,1.7
		c0-0.2,0.1-0.3,0.1-0.5C0.9,1.3,0.7,1.4,0.7,1.7l0.1,0.1c0,0,0-0.3,0-0.3c0.1-0.3,0.2,0.1,0.2,0.2L0.9,1.8
		c0.1,0.7,0.3-0.1,0.5-0.1L1.3,2.2l0.2-0.4c0,0.1,0.1,0.4,0,0.5c0.1,0.3,0.1-0.2,0.2,0.1c0,0,0,0.1,0,0.1l0.1-0.2
		c0,0.1,0,0.4-0.1,0.3c0.2,0.3,0.3-0.4,0.4,0l0,0c0.3-0.2,0-0.4,0.3-0.8l0.2,0.9l0-0.4c0,0,0.1,0,0.1,0.2c0.1-0.3,0-0.2,0-0.4
		C2.8,2.5,3.1,2,3.1,2.6c0.1-0.3-0.1-0.2,0-0.4c0,0.6,0.2-0.1,0.3,0.2c0,0.3-0.2,0.2,0,0.5c0.1-0.6,0.3,0.1,0.4,0
		c0-0.4,0.2-0.2,0.4-0.3c0,0.2,0.4,0.2,0.5,0.4l0,0.1c0-0.5,0.2-0.4,0.4-0.5c0,0.3,0,0.4-0.1,0.5l0.1,0c0-0.1,0.1-0.2,0.2-0.3
		l0,0.3c0.2,0,0.3-0.4,0.6-0.2c0-0.3-0.2-0.9,0.1-1.1c0,0.2,0,0.5,0,0.5c0,0,0.1-0.1,0.1-0.1L5.9,2.6C6,2.7,5.9,2.4,6,2.4
		C6,2.6,6,2.6,6,2.8c0,0-0.1-0.1-0.1,0c0.1,0,0.2,0.2,0.2,0.4c0-0.1,0-0.3,0.1-0.4c0.2,0,0.1,0.3,0.2,0.4c0-0.2,0.1,0,0.2-0.4
		c0,0,0.1,0.2,0.1,0.3c0.1-0.2,0.4,0,0.3-0.4l0,0c0,0,0,0,0,0c0,0,0,0,0,0h0c0.3-0.4,0.6,0.2,0.9,0.1l0,0.1
		C8,2.7,8.2,2.7,8.3,2.5c0,0,0.1,0.2,0.1,0.4c0.1-0.1,0.1-0.2,0.3,0C8.6,3,8.7,3,8.6,2.9c0.2,0.1,0.2,0.3,0.4,0
		C8.9,3.2,9.1,3.3,9.2,3.2L9,3c0.1,0,0.2,0,0.2,0l0,0.4c0.3,0.5,0.6-0.8,0.9,0c0.1-0.3-0.2-0.2-0.1-0.5c0.2,0.1,0.3,0.6,0.4,0.6
		c0.2,0.2,0.2-0.6,0.4-0.4c0-0.1-0.1-0.5,0.1-0.7C11.1,2.4,11.1,3,11,3.1c0,0-0.1,0-0.1-0.1c-0.1,0.1-0.1,0.1-0.1,0.3l0-0.1
		c0.1,0.1,0.3,0.1,0.2,0.4c0.1-0.1,0.1-0.2,0-0.3c0.2,0.2,0.3,0,0.5,0.1c0-0.1-0.1-0.3,0-0.3c0.3,0.2,0.1-0.3,0.3-0.3
		c0.1,0.2,0,0.5,0.2,0.3c0.1,0.2,0,0.4,0,0.5c0.2-0.3,0.4,0.2,0.5,0.2L12.5,4c0.1-0.1,0.1-0.1,0.2-0.1l-0.1-0.3
		c0.1,0.1,0.1,0.1,0.1,0.2c0.1-0.2,0-0.5,0.1-0.7C12.8,3.2,13,2.9,13,3.3c-0.2-0.1,0,0.4-0.2,0.5c0,0,0.1,0,0.1,0
		c0,0,0,0.1,0,0.1c0.2,0.3,0.1-0.4,0.4-0.4c0,0.2,0.1,0.4,0.1,0.4c-0.1,0,0-0.4,0-0.5c0.2,0.2,0.2-0.1,0.3-0.1l-0.1-0.1
		c0-0.2,0.1-0.2,0.2-0.3c0,0.2-0.1,0.1-0.1,0.2c0.1-0.4,0.3,0.4,0.4,0.1c0.1,0.1,0,0.4,0.1,0.5c0.2-0.3,0.2,0.3,0.4,0.1
		c-0.1-0.3-0.1-0.2,0.1-0.5l-0.3,0.2L14.7,3c-0.1,0-0.2,0.2-0.3,0.1c0.1-0.2,0.1-0.2,0-0.4c0.1,0.4,0.3-0.3,0.4,0l0,0.7
		c0.2,0.3,0.4-0.4,0.7-0.2l-0.1-0.1c0-0.3,0.2,0,0.3-0.2c0,0.2,0.1,0.3,0.1,0.5c0-0.2,0.2,0,0.3-0.5l0.1,0.3
		c0.2,0.1,0.3-0.7,0.5-0.6c-0.1,0.3,0,0.4-0.1,0.6c0.1,0,0.1,0,0.2-0.1c0,0.2,0.2-0.3,0.3-0.1c0-0.1,0-0.4,0.1-0.3
		c0,0,0,0.1,0,0.1c0-0.1,0.1-0.2,0.1-0.4c0.2,0.8,0.7-0.1,0.9,0.6c0.2-0.1,0.4-0.2,0.5-0.2c0,0.1,0,0.1,0,0.1
		c0.2,0.2,0.1-0.7,0.4-0.4c0.1,0.4-0.1,0.2-0.1,0.4c0,0.8,0.3-0.1,0.5,0.4l0,0c0.1,0.3,0.3-0.3,0.5-0.2c0,0,0,0.1,0,0.1
		c0.1-0.4,0.4-0.5,0.6-0.7c-0.1,0.3-0.1,0.2-0.1,0.5c0.1,0,0-0.5,0.2-0.6c0.1,0.2,0.2,0.3,0.2,0.7l-0.2,0c0.1,0.4,0.2,0,0.3,0.1
		l0,0.2c0.3-0.1,0.3-0.5,0.5-0.5l0-0.1c0.2-0.5,0.1,0.3,0.3-0.1l0,0.5c0.1-0.1,0.3-0.5,0.5-0.6c-0.1,0.4-0.3,0.5-0.4,0.8
		c0.1,0,0.3,0,0.4-0.3c0,0-0.1,0.2-0.1,0.1c0.1-0.4,0.3-0.6,0.5-0.6c0,0.9,0.5,0.2,0.7,1c0.3-0.3,0.7,0.1,1.1,0.1
		c-0.1-0.7,0.1,0,0.1-0.8c0.1,0,0.1,0,0.1,0l0.3,0.4c0.1,0.2-0.1,0.2-0.1,0.3C25,3.7,24.9,3.9,25,4.1c0-0.3,0.1-0.4,0.2-0.3
		L25,3.5c0.3-0.4,0.2,0.6,0.5,0.2L25.5,4c0.1-0.1,0.5,0,0.7-0.6c0,0.1,0.1,0.3,0,0.3c0.4,0.1,0.8-0.6,1.1-0.3l0,0.2
		c0.1-0.1,0.1-0.3,0.2-0.2c0,0.1,0,0.2,0,0.2c0-0.1,0.2-0.3,0.3-0.2l-0.1,0.2c0.3,0.2,0.5-0.5,0.8-0.6c0,0.5,0.3,0.7,0.4,0.8
		l0,0.1c0.4,0.1,0.7-0.4,1.1-0.7c0.2,0.6,0.8,0.2,1.2,0.6c-0.1-0.1,0-0.4,0.1-0.5c0.1,0.1,0.2-0.4,0.2,0.1l0,0
		c0.1,0.5,0.2,0.4,0.4,0.4l0-0.7c0.4,0.9,1-0.3,1.2,0.5c0.1-0.2,0.2-0.2,0.3-0.3l0,0.3c0.2,0.1,0.4,0.1,0.7,0L33.8,4
		C34,4,34,3,34.2,3l0,0.5c0.3,0,0.6,0.4,0.9,0c0,0.1,0,0.2-0.1,0.2c0.1,0,0.5,0.4,0.5-0.4c0,0.5,0.3,0,0.5-0.2l0,0.3
		c0.1-0.4,0.1-0.6,0.3-0.7c0,0,0,0.3,0,0.2c0.2,0.2,0.1-0.3,0.3-0.1l-0.1,0.2c0.2,0,0.1-0.1,0.2-0.3c0.1-0.1,0.3,0.1,0.3,0.4
		c0-0.2,0.1-0.4,0.2-0.4c0,0.1,0,0.2,0,0.2c0.3,0.2,0.4-0.4,0.6-0.1c0,0.1,0,0.2,0,0.2c-0.2,0-0.4,0-0.4-0.1
		c0,0.3,0.2,0.4,0,0.8c0.1-0.2,0.4-0.8,0.5-0.6c0,0,0,0.1,0,0.1l0,0c0,0,0.1,0,0.1-0.1c0.1,0.1,0.1,0.1,0.1,0.1
		c0,0.3,0.2,0.1,0.3,0.2c0-0.3,0.1-0.3,0-0.6c0,0,0,0-0.1,0.1c0,0,0,0,0,0c0,0,0,0,0,0c-0.1,0-0.1,0-0.2,0
		c0.1-0.2,0.1-0.3,0.2-0.1c0-0.2,0.1-0.5,0.1-0.6c0.1,0.5,0.3,0.7,0.4,1c0.3-0.2,0.6-0.1,0.8-0.8c0.1-0.1,0.1,0.2,0.1,0.3
		c0,0.1-0.1,0.1-0.1,0.1c0.1-0.2,0.4-0.1,0.5-0.5c0.2,0.2-0.1,0.4,0.1,0.3l0,0.1C40.8,3.9,41.1,2,41.6,3c0-0.1-0.1-0.1-0.1-0.2
		c0.6,0.4,1.3-0.4,1.9,0.3c0.2,0.1,0.2-0.2,0.3-0.4l0,0.4L44,2.6c0.3-0.3,0.4,0.9,0.8,0.3l0-0.3c0.1,0,0.4-0.1,0.4,0.1
		c0,0,0-0.3,0.1-0.1l0,0.2l0.3-0.3c0.2,0.1,0,0.8,0.3,0.8C45.8,3.3,46,2.8,46,2.7c0,0-0.1-0.1-0.1-0.3L46,2.3
		c0-0.6,0.1-1.2-0.2-1.6L45.6,1l-0.1-0.3l0.2,0c-0.1-0.3-0.1,0-0.2,0.1c0-0.1,0-0.3-0.1-0.3l-0.2,0.5c0-0.2,0.1-0.4,0-0.6
		c-0.1,0.3,0.1,0.5-0.1,0.7C45.1,1,45.1,0.8,45,1c0-0.1,0-0.2,0-0.3c-0.1,0.2-0.2,0.1-0.3,0.4c-0.1-0.3-0.3,0.1-0.3-0.5
		c0,0.1-0.2,0.4-0.3,0.4c0.2-0.6-0.3,0-0.3-0.7c-0.1,0.6-0.4,0.3-0.6,0.6c0,0,0-0.1,0.1-0.1c-0.1,0-0.2-0.2-0.2-0.3
		c0,0.5-0.2,0.6-0.3,0.9c-0.1-0.5,0.1-0.6,0-1c0,0.4-0.2,0.4-0.2,0.7c-0.1-0.3-0.1-0.1-0.2-0.5c0,0.6-0.1,0.1-0.2,0.5
		c-0.2-0.3,0-0.6-0.2-0.4C42,0.4,42.1,0.2,42.1,0.2z M38,1.2C38,1.2,38,1.2,38,1.2C38,1.2,38.1,1.2,38,1.2
		C38.1,1.2,38,1.2,38,1.2z M37.6,1.2c0,0,0.1,0,0.2,0c0,0.1,0,0.2,0,0.2C37.8,1.4,37.7,1.3,37.6,1.2z M38.4,3.6
		C38.3,3.7,38.3,3.6,38.4,3.6c-0.1-0.1,0-0.1,0-0.1c0,0,0,0,0,0C38.4,3.5,38.4,3.6,38.4,3.6z"/>
	<path fill="#E7E7E7" d="M38.5,3.2C38.5,3.2,38.5,3.2,38.5,3.2c0-0.1,0-0.1,0-0.1C38.5,3.1,38.5,3.1,38.5,3.2
		C38.5,3.2,38.5,3.2,38.5,3.2z"/>
	<path fill="#E7E7E7" d="M6.9,2.7L6.9,2.7C6.9,2.7,6.9,2.6,6.9,2.7C6.9,2.6,6.9,2.7,6.9,2.7z"/>
	<polygon fill="#E7E7E7" points="32.8,0.6 32.8,0.7 32.9,0.6"/>
	<path fill="#E7E7E7" d="M5,1.5C5,1.4,5,1.4,5,1.5C5,1.4,5,1.4,5,1.5z"/>
	<path fill="#E7E7E7" d="M4.2,1.4L4.1,1.3C4.1,1.3,4.1,1.4,4.2,1.4z"/>
	<path fill="#E7E7E7" d="M3.5,1.2c0,0.1,0,0.1,0,0.1c0,0,0,0,0,0L3.5,1.2z"/>
	<path fill="#E7E7E7" d="M13.7,0.8C13.7,0.8,13.7,0.8,13.7,0.8C13.7,0.7,13.7,0.8,13.7,0.8z"/>
	<path fill="#E7E7E7" d="M10.7,1.6c0-0.1,0.1-0.1,0.1-0.2C10.7,1.4,10.7,1.4,10.7,1.6z"/>
	<path fill="#E7E7E7" d="M17,0.4C17,0.4,17,0.4,17,0.4C17,0.4,17,0.4,17,0.4L17,0.4z"/>
	<path fill="#E7E7E7" d="M10.9,1.5c-0.1-0.1-0.1-0.1-0.1,0C10.8,1.5,10.8,1.5,10.9,1.5z"/>
	<path fill="#E7E7E7" d="M0.8,1.1L0.8,1.1C0.8,1.1,0.7,1.1,0.8,1.1L0.8,1.1z"/>
	<path fill="#E7E7E7" d="M0.7,1.1L0.7,1.1C0.7,1.2,0.7,1.2,0.7,1.1z"/>
	<path fill="#E7E7E7" d="M0.6,1.2L0.6,1.2C0.7,1.2,0.7,1.1,0.6,1.2z"/>
	<path fill="#E7E7E7" d="M1.6,1.2l0-0.1C1.6,1.1,1.6,1.2,1.6,1.2z"/>
	<path fill="#E7E7E7" d="M1.9,1.2C1.8,1.2,1.7,0.9,1.6,1l0,0.1C1.7,0.9,1.8,1.4,1.9,1.2z"/>
	<path fill="#E7E7E7" d="M2.9,2.7L2.7,2.6c0,0.1,0.1,0.3,0,0.3C3,3.4,2.7,2.7,2.9,2.7z"/>
	<path fill="#E7E7E7" d="M3.6,2.9c-0.1,0.1,0,0.2,0,0.3C3.7,3.1,3.7,3.1,3.6,2.9z"/>
	<path fill="#E7E7E7" d="M8.4,2.9l0,0.3C8.5,3.2,8.4,3.1,8.4,2.9z"/>
	<polygon fill="#E7E7E7" points="9.3,1.3 9.3,1.1 9.2,1.4"/>
	<polygon fill="#E7E7E7" points="9.9,3.6 9.8,3.6 10,3.5"/>
	<path fill="#E7E7E7" d="M18,3.4l0-0.4C17.9,3.1,17.9,3.6,18,3.4z"/>
	<path fill="#E7E7E7" d="M21.5,3c0,0.2,0.1,0.3,0.2,0.1C21.6,3.2,21.5,3,21.5,3z"/>
	<polygon fill="#E7E7E7" points="31.9,3.7 31.8,3.8 32,3.7"/>
</g>
</svg>
