<svg xmlns="http://www.w3.org/2000/svg" viewBox="0 0 133.1 37.1">
<style type="text/css">
	.st0{fill:#00AFAA;}
	.st1{fill:#333E48;}
	.st2{fill:#f0f0f0;}
	.st3{fill:#64C0BD;}
</style>
<g>
	<g>
		<polygon class="st0" points="116.8,0 119.3,0 16.3,0 6.4,18.6 16.3,37.1 13.8,37.1 116.8,37.1 126.6,18.5"/>
		<polygon class="st1" points="119.3,0 116.8,0 126.6,18.5 116.8,37.1 116.8,37.1 119.3,37.1 133.1,18.5"/>
		<polygon class="st1" points="6.4,18.6 16.3,0 16.3,0 13.8,0 0,18.6 13.8,37.1 16.3,37.1"/>
	</g>
	<g>
		<path class="st1" d="M50.2,12.3V29h-2.9V9.4H56c2.8,0,4.2,1.4,4.2,4.2v2.2c0,2.8-1.4,4.2-4.2,4.2h-4.9v-2.9H56
			c0.9,0,1.3-0.4,1.3-1.3v-2.2c0-0.9-0.4-1.3-1.3-1.3H50.2z"/>
		<path class="st1" d="M74.5,26.1V29h-7.6c-2.8,0-4.2-1.4-4.2-4.2v-5.6c0-2.8,1.4-4.2,4.2-4.2h4.5c2.8,0,4.2,1.4,4.2,4.2l0,0
			c0,2.8-1.4,4.2-4.2,4.2h-4.9v-2.9h4.9c0.9,0,1.3-0.4,1.3-1.3l0,0c0-0.9-0.4-1.3-1.3-1.3h-4.5c-0.9,0-1.3,0.4-1.3,1.3v5.6
			c0,0.9,0.4,1.3,1.3,1.3C66.9,26.1,74.5,26.1,74.5,26.1z"/>
		<path class="st1" d="M77.6,14.9h1.1V9.4h2.7V15h2.4v2.9h-2.4V29h-2.7V17.8h-1.1V14.9z"/>
		<path class="st1" d="M88.6,29h-2.9v-9.8c0-2.8,1.4-4.2,4.2-4.2h2v2.9h-2c-0.9,0-1.3,0.4-1.3,1.3C88.6,19.2,88.6,29,88.6,29z"/>
		<path class="st1" d="M105.7,26.1V29h-7.6c-2.8,0-4.2-1.4-4.2-4.2v-5.6c0-2.8,1.4-4.2,4.2-4.2h4.5c2.8,0,4.2,1.4,4.2,4.2l0,0
			c0,2.8-1.4,4.2-4.2,4.2h-4.9v-2.9h4.9c0.9,0,1.3-0.4,1.3-1.3l0,0c0-0.9-0.4-1.3-1.3-1.3h-4.5c-0.9,0-1.3,0.4-1.3,1.3v5.6
			c0,0.9,0.4,1.3,1.3,1.3C98.1,26.1,105.7,26.1,105.7,26.1z"/>
		<path class="st1" d="M109.1,9.4h2.9V29h-2.9V9.4z"/>
	</g>
	<g>
		<g>
			<g>
				<path class="st2" d="M30,33.3c-8.1,0-14.6-6.6-14.6-14.6C15.4,10.6,22,4.1,30,4.1c4.9,0,9.4,2.4,12.1,6.4
					c0.6,0.9,0.4,2.2-0.5,2.8s-2.2,0.4-2.8-0.5c-2-2.9-5.3-4.7-8.8-4.7c-5.9,0-10.6,4.8-10.6,10.6S24.2,29.3,30,29.3
					c3.4,0,6.5-1.6,8.5-4.3c0.7-0.9,1.9-1.1,2.8-0.4c0.9,0.7,1.1,1.9,0.4,2.8C39,31.1,34.6,33.3,30,33.3z"/>
			</g>
			<g>
				<path class="st2" d="M43.7,21h-5c-1.3,0-2.3-1.1-2.3-2.3s1.1-2.3,2.3-2.3h5c1.3,0,2.3,1.1,2.3,2.3S45,21,43.7,21z"/>
			</g>
		</g>
		<path class="st3" d="M25.1,14.6v-3.4h4.5c3.3,0,5,1.7,5,5v5.3c0,3.3-1.7,5-5,5h-1.3c-3.3,0-5-1.7-5-5v-0.1c0-3.3,1.7-4.9,5-4.9
			h1.8v3.4h-1.8c-1.1,0-1.6,0.5-1.6,1.5v0.1c0,1.1,0.5,1.6,1.6,1.6h1.3c1.1,0,1.6-0.5,1.6-1.6v-5.3c0-1.1-0.5-1.6-1.6-1.6H25.1z"/>
	</g>
</g>
</svg>
