<svg xmlns="http://www.w3.org/2000/svg" viewBox="0 0 52.5 46">
<path fill="#00A69A" d="M39.2,23l-5.8-10l-2.8-1.1l0.2-3.5L26.3,0l-4.6,8.5l0.2,3.5L19,13l-5.8,10L0,46h7.7l0.5-1.3L8.7,46h1.1l0.4-0.8
	l-0.8-0.9l1,0.4l0.5-1.1l-0.5-0.5h0.8l0.5-1.1l-0.4-0.4l0.7-0.1l0.4-0.9l-0.3-0.3h0.4l6.6-13.7l3,12.8L17.8,46H21l1-2.3l0.3,2.3H24
	l0.6-2.2l0.5,2.2h1.1h1.1l0.5-2.2l0.6,2.2h1.7l0.3-2.3l1,2.3h3.2l-4.2-6.6l3-12.8L40,40.4h0.4l-0.3,0.3l0.4,0.9l0.7,0.1L40.8,42
	l0.5,1.1h0.8l-0.5,0.5l0.5,1.1l1-0.4l-0.8,0.9l0.4,0.8h1.1l0.5-1.3l0.5,1.3h7.7L39.2,23z M23.7,7.2c-0.2,0.4-0.5,0.6-0.6,0.5
	c-0.1-0.1-0.1-0.4,0.1-0.8c0.2-0.4,0.5-0.6,0.6-0.5C24,6.5,23.9,6.9,23.7,7.2z M29.4,7.8c-0.1,0.1-0.4-0.1-0.6-0.5
	c-0.2-0.4-0.3-0.7-0.1-0.8c0.1-0.1,0.4,0.1,0.6,0.5C29.5,7.3,29.6,7.7,29.4,7.8z"/>
</svg>
